<svg width="63" height="63" viewBox="0 0 63 63" fill="none" xmlns="http://www.w3.org/2000/svg">
<path d="M58 27.0157C62 29.5157 59.1667 38.5157 56 42.5157C56 42.5157 41.8747 47.9037 32.5 47.5157C24.6451 47.1906 13 42.5157 13 42.5157C10.3333 41.349 5 37.9157 5 33.5157C5 29.1157 9.33333 24.6824 12.5 24.5157C12.5 20.5157 16.1 15.4157 22.5 15.0157C28.9 14.6157 31 22.0157 31 22.0157C31 22.0157 35.7 18.5157 40.5 18.5157C45.3 18.5157 47 26.5157 47 26.5157C51.8816 24.7584 54 24.5157 58 27.0157Z" stroke="black" stroke-width="2"/>
</svg>
