<svg width="63" height="63" viewBox="0 0 63 63" fill="none" xmlns="http://www.w3.org/2000/svg">
<path d="M28.4999 59.5C27.4999 50 26.4999 29.9 30.4999 25.5" stroke="black" stroke-width="2"/>
<circle cx="33" cy="22" r="4" stroke="black" stroke-width="2"/>
<path d="M29 23.5001C25.8334 24.3334 19 23.9001 17 19.5001C15 15.1001 22.3333 16.0001 27.5 17.5001C25.3333 12.8334 24.1781 7.82871 27.5 6.50001C30 5.50001 34 16.0001 34 16.0001C34 16.0001 41 4.00004 43.5 8.00004C46.9511 13.5219 39.3333 19.1667 37.5 21.5C42.8333 25 48.5 27 46 30.5C43.629 33.8194 36 26 35.5 26C35 27 30.6001 39.3 27 36.5C23.3999 33.7 28.1667 29.1667 30 26" stroke="black" stroke-width="2"/>
</svg>
